<?xml version="1.0" encoding="UTF-8"?>
<svg id="Layer_2" data-name="Layer 2" xmlns="http://www.w3.org/2000/svg" viewBox="0 0 493.8 510.23" xmlns:c2pa="http://c2pa.org/manifest"><metadata><c2pa:manifest>AAAWgmp1bWIAAAAeanVtZGMycGEAEQAQgAAAqgA4m3EDYzJwYQAAABZcanVtYgAAAEdqdW1kYzJtYQARABCAAACqADibcQN1cm46YzJwYToyY2FlNjlhMC03ODllLTRlYTgtYmVmNS01ZGE1OWI0YTYwYzYAAAADl2p1bWIAAAApanVtZGMyYXMAEQAQgAAAqgA4m3EDYzJwYS5hc3NlcnRpb25zAAAAALxqdW1iAAAARGp1bWRjYm9yABEAEIAAAKoAOJtxE2MycGEuaW5ncmVkaWVudC52MwAAAAAYYzJzaMdFlvOBnpJYctM/CeP29tEAAABwY2JvcqNpZGM6Zm9ybWF0bWltYWdlL3N2Zyt4bWxqaW5zdGFuY2VJRHgseG1wOmlpZDpiZmJlNGNjYy02YTg1LTQyZTgtYjZjZC1jNzY3YjU5M2IwNjFscmVsYXRpb25zaGlwaHBhcmVudE9mAAAB4mp1bWIAAABBanVtZGNib3IAEQAQgAAAqgA4m3ETYzJwYS5hY3Rpb25zLnYyAAAAABhjMnNon7OJa6h6cFoBrNAgtgfXuAAAAZljYm9yomdhY3Rpb25zgqJmYWN0aW9ua2MycGEub3BlbmVkanBhcmFtZXRlcnOha2luZ3JlZGllbnRzgaJjdXJseC1zZWxmI2p1bWJmPWMycGEuYXNzZXJ0aW9ucy9jMnBhLmluZ3JlZGllbnQudjNkaGFzaFggf3S/6+vvAZAXfyIONLWUDq0tboCw61ynr9dLr87XMK+kZmFjdGlvbngdY29tLmFudGhyb3BpYy5jbGF1ZGUucHJvdmlkZWRqcGFyYW1ldGVyc6F4H2NvbS5hbnRocm9waWMub3JpZ2luLWNvbmZpZGVuY2VndW5rbm93bmtkZXNjcmlwdGlvbnhmQ2xhdWRlIHByb3ZpZGVkIHRoaXMgZmlsZSBhdCB0aGUgcmVxdWVzdCBvZiBhIHVzZXIgYW5kIG1heSBoYXZlIGNyZWF0ZWQgb3IgbW9kaWZpZWQgdGhlIGZpbGUgY29udGVudHMubXNvZnR3YXJlQWdlbnShZG5hbWVmQ2xhdWRlcmFsbEFjdGlvbnNJbmNsdWRlZPUAAADIanVtYgAAAEBqdW1kY2JvcgARABCAAACqADibcRNjMnBhLmhhc2guZGF0YQAAAAAYYzJzaDAgZpFKJVSctm5Q7TYAiVEAAACAY2JvcqVjYWxnZnNoYTI1NmNwYWRNAAAAAAAAAAAAAAAAAGRoYXNoWCC6OnZT/Le1gl60LRXjp3jY78aeyAwdmQgnBJvCFvMzN2RuYW1lbmp1bWJmIG1hbmlmZXN0amV4Y2x1c2lvbnOBomVzdGFydBjKZmxlbmd0aBkeBAAAAj5qdW1iAAAAJ2p1bWRjMmNsABEAEIAAAKoAOJtxA2MycGEuY2xhaW0udjIAAAACD2Nib3KlY2FsZ2ZzaGEyNTZpc2lnbmF0dXJleE1zZWxmI2p1bWJmPS9jMnBhL3VybjpjMnBhOjJjYWU2OWEwLTc4OWUtNGVhOC1iZWY1LTVkYTU5YjRhNjBjNi9jMnBhLnNpZ25hdHVyZWppbnN0YW5jZUlEeCx4bXA6aWlkOjliMDNmYTg5LTRhNGEtNGI5MS05MGNmLTAzMmI3MmRjYjkwYXJjcmVhdGVkX2Fzc2VydGlvbnODomN1cmx4LXNlbGYjanVtYmY9YzJwYS5hc3NlcnRpb25zL2MycGEuaW5ncmVkaWVudC52M2RoYXNoWCB/dL/r6+8BkBd/Ig40tZQOrS1ugLDrXKev10uvztcwr6JjdXJseCpzZWxmI2p1bWJmPWMycGEuYXNzZXJ0aW9ucy9jMnBhLmFjdGlvbnMudjJkaGFzaFggThTo+NIUZ4xGdANDuq4KVknGpk19Z6AWPtRMdSTIg1WiY3VybHgpc2VsZiNqdW1iZj1jMnBhLmFzc2VydGlvbnMvYzJwYS5oYXNoLmRhdGFkaGFzaFgg2KotXmNqP5xxsxFhssCqFQYoLk12ETPh6qvVqU180J10Y2xhaW1fZ2VuZXJhdG9yX2luZm+jZG5hbWVvQW50aHJvcGljIEZpbGVzZ3ZlcnNpb25lMS4wLjBrc3BlY1ZlcnNpb25lMi40LjAAABA4anVtYgAAAChqdW1kYzJjcwARABCAAACqADibcQNjMnBhLnNpZ25hdHVyZQAAABAIY2JvctKEWQISogEmGCFZAgowggIGMIIBjaADAgECAhRA5aAK7sI50L64g/oGQgU9Z1UTADAKBggqhkjOPQQDAzBJMRcwFQYDVQQKEw5BbnRocm9waWMsIFBCQzEuMCwGA1UEAxMlQW50aHJvcGljIENvbnRlbnQgQ3JlZGVudGlhbHMgUm9vdCBDQTAeFw0yNjA4MDcxODQzNTZaFw0yODA4MDYxOTQzNTZaMEQxFzAVBgNVBAoTDkFudGhyb3BpYywgUEJDMSkwJwYDVQQDEyBBbnRocm9waWMgQ2xhdWRlIENvbnRlbnQgU2lnbmluZzBZMBMGByqGSM49AgEGCCqGSM49AwEHA0IABJh6CmvLUBgFFNU0vUKlOVtE6djd17L5SuwX0LemFisBM3dkd/3cyjxFA3Qo5S46fX0/ihY0VZ7mfb9KF703t5OjWDBWMA4GA1UdDwEB/wQEAwIHgDAVBgNVHSUEDjAMBgorBgEEAYPoXgIBMAwGA1UdEwEB/wQCMAAwHwYDVR0jBBgwFoAUzlHiBIFOZFsj+OPEz5o+nMHXXMIwCgYIKoZIzj0EAwMDZwAwZAIwMXMdFJ4BetLLVY7ORuE9noqbbAZOZn/aArXyTwFAZfKrPzxF2vPoJNf1+UCdg1XGAjBwX1zd9WGqYkqmL5SFqw1QySjr1zJfpJM9+1rdDwSPLMOPOjKuiXjoU/pUUeG9RwmhY3BhZFkNngAAAAAAAAAAAAAAAAAAAAAAAAAAAAAAAAAAAAAAAAAAAAAAAAAAAAAAAAAAAAAAAAAAAAAAAAAAAAAAAAAAAAAAAAAAAAAAAAAAAAAAAAAAAAAAAAAAAAAAAAAAAAAAAAAAAAAAAAAAAAAAAAAAAAAAAAAAAAAAAAAAAAAAAAAAAAAAAAAAAAAAAAAAAAAAAAAAAAAAAAAAAAAAAAAAAAAAAAAAAAAAAAAAAAAAAAAAAAAAAAAAAAAAAAAAAAAAAAAAAAAAAAAAAAAAAAAAAAAAAAAAAAAAAAAAAAAAAAAAAAAAAAAAAAAAAAAAAAAAAAAAAAAAAAAAAAAAAAAAAAAAAAAAAAAAAAAAAAAAAAAAAAAAAAAAAAAAAAAAAAAAAAAAAAAAAAAAAAAAAAAAAAAAAAAAAAAAAAAAAAAAAAAAAAAAAAAAAAAAAAAAAAAAAAAAAAAAAAAAAAAAAAAAAAAAAAAAAAAAAAAAAAAAAAAAAAAAAAAAAAAAAAAAAAAAAAAAAAAAAAAAAAAAAAAAAAAAAAAAAAAAAAAAAAAAAAAAAAAAAAAAAAAAAAAAAAAAAAAAAAAAAAAAAAAAAAAAAAAAAAAAAAAAAAAAAAAAAAAAAAAAAAAAAAAAAAAAAAAAAAAAAAAAAAAAAAAAAAAAAAAAAAAAAAAAAAAAAAAAAAAAAAAAAAAAAAAAAAAAAAAAAAAAAAAAAAAAAAAAAAAAAAAAAAAAAAAAAAAAAAAAAAAAAAAAAAAAAAAAAAAAAAAAAAAAAAAAAAAAAAAAAAAAAAAAAAAAAAAAAAAAAAAAAAAAAAAAAAAAAAAAAAAAAAAAAAAAAAAAAAAAAAAAAAAAAAAAAAAAAAAAAAAAAAAAAAAAAAAAAAAAAAAAAAAAAAAAAAAAAAAAAAAAAAAAAAAAAAAAAAAAAAAAAAAAAAAAAAAAAAAAAAAAAAAAAAAAAAAAAAAAAAAAAAAAAAAAAAAAAAAAAAAAAAAAAAAAAAAAAAAAAAAAAAAAAAAAAAAAAAAAAAAAAAAAAAAAAAAAAAAAAAAAAAAAAAAAAAAAAAAAAAAAAAAAAAAAAAAAAAAAAAAAAAAAAAAAAAAAAAAAAAAAAAAAAAAAAAAAAAAAAAAAAAAAAAAAAAAAAAAAAAAAAAAAAAAAAAAAAAAAAAAAAAAAAAAAAAAAAAAAAAAAAAAAAAAAAAAAAAAAAAAAAAAAAAAAAAAAAAAAAAAAAAAAAAAAAAAAAAAAAAAAAAAAAAAAAAAAAAAAAAAAAAAAAAAAAAAAAAAAAAAAAAAAAAAAAAAAAAAAAAAAAAAAAAAAAAAAAAAAAAAAAAAAAAAAAAAAAAAAAAAAAAAAAAAAAAAAAAAAAAAAAAAAAAAAAAAAAAAAAAAAAAAAAAAAAAAAAAAAAAAAAAAAAAAAAAAAAAAAAAAAAAAAAAAAAAAAAAAAAAAAAAAAAAAAAAAAAAAAAAAAAAAAAAAAAAAAAAAAAAAAAAAAAAAAAAAAAAAAAAAAAAAAAAAAAAAAAAAAAAAAAAAAAAAAAAAAAAAAAAAAAAAAAAAAAAAAAAAAAAAAAAAAAAAAAAAAAAAAAAAAAAAAAAAAAAAAAAAAAAAAAAAAAAAAAAAAAAAAAAAAAAAAAAAAAAAAAAAAAAAAAAAAAAAAAAAAAAAAAAAAAAAAAAAAAAAAAAAAAAAAAAAAAAAAAAAAAAAAAAAAAAAAAAAAAAAAAAAAAAAAAAAAAAAAAAAAAAAAAAAAAAAAAAAAAAAAAAAAAAAAAAAAAAAAAAAAAAAAAAAAAAAAAAAAAAAAAAAAAAAAAAAAAAAAAAAAAAAAAAAAAAAAAAAAAAAAAAAAAAAAAAAAAAAAAAAAAAAAAAAAAAAAAAAAAAAAAAAAAAAAAAAAAAAAAAAAAAAAAAAAAAAAAAAAAAAAAAAAAAAAAAAAAAAAAAAAAAAAAAAAAAAAAAAAAAAAAAAAAAAAAAAAAAAAAAAAAAAAAAAAAAAAAAAAAAAAAAAAAAAAAAAAAAAAAAAAAAAAAAAAAAAAAAAAAAAAAAAAAAAAAAAAAAAAAAAAAAAAAAAAAAAAAAAAAAAAAAAAAAAAAAAAAAAAAAAAAAAAAAAAAAAAAAAAAAAAAAAAAAAAAAAAAAAAAAAAAAAAAAAAAAAAAAAAAAAAAAAAAAAAAAAAAAAAAAAAAAAAAAAAAAAAAAAAAAAAAAAAAAAAAAAAAAAAAAAAAAAAAAAAAAAAAAAAAAAAAAAAAAAAAAAAAAAAAAAAAAAAAAAAAAAAAAAAAAAAAAAAAAAAAAAAAAAAAAAAAAAAAAAAAAAAAAAAAAAAAAAAAAAAAAAAAAAAAAAAAAAAAAAAAAAAAAAAAAAAAAAAAAAAAAAAAAAAAAAAAAAAAAAAAAAAAAAAAAAAAAAAAAAAAAAAAAAAAAAAAAAAAAAAAAAAAAAAAAAAAAAAAAAAAAAAAAAAAAAAAAAAAAAAAAAAAAAAAAAAAAAAAAAAAAAAAAAAAAAAAAAAAAAAAAAAAAAAAAAAAAAAAAAAAAAAAAAAAAAAAAAAAAAAAAAAAAAAAAAAAAAAAAAAAAAAAAAAAAAAAAAAAAAAAAAAAAAAAAAAAAAAAAAAAAAAAAAAAAAAAAAAAAAAAAAAAAAAAAAAAAAAAAAAAAAAAAAAAAAAAAAAAAAAAAAAAAAAAAAAAAAAAAAAAAAAAAAAAAAAAAAAAAAAAAAAAAAAAAAAAAAAAAAAAAAAAAAAAAAAAAAAAAAAAAAAAAAAAAAAAAAAAAAAAAAAAAAAAAAAAAAAAAAAAAAAAAAAAAAAAAAAAAAAAAAAAAAAAAAAAAAAAAAAAAAAAAAAAAAAAAAAAAAAAAAAAAAAAAAAAAAAAAAAAAAAAAAAAAAAAAAAAAAAAAAAAAAAAAAAAAAAAAAAAAAAAAAAAAAAAAAAAAAAAAAAAAAAAAAAAAAAAAAAAAAAAAAAAAAAAAAAAAAAAAAAAAAAAAAAAAAAAAAAAAAAAAAAAAAAAAAAAAAAAAAAAAAAAAAAAAAAAAAAAAAAAAAAAAAAAAAAAAAAAAAAAAAAAAAAAAAAAAAAAAAAAAAAAAAAAAAAAAAAAAAAAAAAAAAAAAAAAAAAAAAAAAAAAAAAAAAAAAAAAAAAAAAAAAAAAAAAAAAAAAAAAAAAAAAAAAAAAAAAAAAAAAAAAAAAAAAAAAAAAAAAAAAAAAAAAAAAAAAAAAAAAAAAAAAAAAAAAAAAAAAAAAAAAAAAAAAAAAAAAAAAAAAAAAAAAAAAAAAAAAAAAAAAAAAAAAAAAAAAAAAAAAAAAAAAAAAAAAAAAAAAAAAAAAAAAAAAAAAAAAAAAAAAAAAAAAAAAAAAAAAAAAAAAAAAAAAAAAAAAAAAAAAAAAAAAAAAAAAAAAAAAAAAAAAAAAAAAAAAAAAAAAAAAAAAAAAAAAAAAAAAAAAAAAAAAAAAAAAAAAAAAAAAAAAAAAAAAAAAAAAAAAAAAAAAAAAAAAAAAAAAAAAAAAAAAAAAAAAAAAAAAAAAAAAAAAAAAAAAAAAAAAAAAAAAAAAAAAAAAAAAAAAAAAAAAAAAAAAAAAAAAAAAAAAAAAAAAAAAAAAAAAAAAAAAAAAAAAAAAAAAAAAAAAAAAAAAAAAAAAAAAAAAAAAAAAAAAAAAAAAAAAAAAAAAAAAAAAAAAAAAAAAAAAAAAAAAAAAAAAAAAAAAAAAAAAAAAAAAAAAAAAAAAAAAAAAAAAAAAAAAAAAAAAAAAAAAAAAAAAAAAAAAAAAAAAAAAAAAAAAAAAAAAAAAAAAAAAAAAAAAAAAAAAAAAAAAAAAAAAAAAAAAAAAAAAAAAAAAAAAAAAAAAAAAAAAAAAAAAAAAAAAAAAAAAAAAAAAAAAAAAAAAAAAAAAAAAAAAAAAAAAAAAAAAAAAAAAAAAAAAAAAAAAAAAAAAAAAAAAAAAAAAAAAAAAAAAAAAAAAAAAAAAAAAAAAAAAAAAAAAAAAAAAAAAAAAAAAAAAAAAAAAAAAAAAAAAAAAAAAAAAAAAAAAAAAAAAAAAAAAAAAAAAAAAAAAAAAAAAAAAAAAAAAAAAAAAAAAAAAAAAAAAAAAAAAAAAAAAAAAAAAAAAAAAAAAAAAAAAAAAAAAAAAAAAAAAAAAAAAAAAAAAAAAAAAAAAAAAAAAAAAAAAAAAAAAAAAAAAAAAAAAAAAAAAAAAAAAAAAAAAAAAAAAAAAAAAAAAAAAAAAAAAAAAAAAAAAAAAAAAAAAAAAAAAAAAAAAAAAAAAAAAAAAAAAAAAAAAAAAAAAAAAAAAAAAAAAAAAAAAAAAAAAAAAAAAAAAAAAAAAAAAAAAAAAAAAAAAAAAAAAAAAAAAAAAAAAAAAAAAAAAAAAAAAAAAAAAAAAAAAAAAAAAAAAAAAAAAAAAAAAAAAAAAAAAAAAAAAAAAAAAAAAAAAAAAAAAAAAAAAAAAAAAAAAAAAAAAAAAAAAAAAAAAAAAAAAAAAAAAAAAAAAAAAAAAAAAAAAAAAAAAAAAAAAAAAAAAAAAAAAAAAAAAAAAAAAAAAAAAAAAAAAAAAAAAAAAAAAAAAAAAAAAAAAAAAAAAAAAAAAAAAAAAAAAAAAAAAAAAAAAAAAAAAAAAAAAAAAAAAAAAAAAAAAAAAAAAAAAAAAAAAAAAAAAAAAAAPZYQOfalmGWyHlXZNZvQ0S7y5zJuittbMrbP8NIYi3Ui3j+yNS8GgTMGQdRPy8LE0bBi3XH1l0DW13L8Q3G1GKAxGA=</c2pa:manifest></metadata>
  <defs>
    <style>
      .cls-1 {
        fill: #ec622c;
      }
    </style>
  </defs>
  <g id="Layer_1-2" data-name="Layer 1">
    <g>
      <path d="M84.3,24.58H28.52v21.27h52.47v22.69H28.52v21.9h56.88v24.58H0V0h84.3v24.58Z"/>
      <path d="M162.08,115.02h-35.29L85.5,0h32.62l27.26,86.97L172.63,0h30.88l-41.44,115.02Z"/>
      <path d="M289.65,24.58h-55.78v21.27h52.47v22.69h-52.47v21.9h56.88v24.58h-85.4V0h84.3v24.58Z"/>
      <path d="M392.17,115.02h-33.56c-1.1-7.56-2.05-14.97-3.15-25.05-1.26-11.19-4.41-14.34-17.33-14.34h-15.6v39.39h-28.68V0h46.48c6.46,0,11.19.16,16.86.79,15.6,1.73,31.35,9.61,31.35,32.14,0,14.97-7.72,24.11-20.17,28.99,9.61,3.62,14.97,10.4,16.07,21.59,1.1,11.82,2.21,18.28,3.94,25.68l3.78,4.57v1.26ZM340.49,52c11.5,0,18.75-3.62,18.75-14.02s-5.51-14.34-18.28-14.34h-18.43v28.36h17.96Z"/>
      <path d="M449.21,71.06v43.96h-28.68v-43.96L376.1,0h33.72l25.68,44.28L460.71,0h33.09l-44.59,71.06Z"/>
      <path d="M98.16,155.58h-34.82v90.44h-28.52v-90.44H0v-24.58h98.16v24.58Z"/>
      <path d="M211.45,246.02h-28.52v-45.54h-46.64v45.54h-28.52v-115.02h28.52v44.91h46.64v-44.91h28.52v115.02Z"/>
      <path d="M253.66,246.02h-28.52v-115.02h28.52v115.02Z"/>
      <path d="M364.6,246.02h-33.4l-26.79-50.89c-4.73-9.61-9.3-19.54-13.71-29.31.79,12.45,1.1,23.48,1.1,33.72v46.48h-26.94v-115.02h33.25l25.84,48.06c5.2,10.08,10.08,20.33,14.81,30.57-.79-12.45-1.1-24.58-1.1-34.66v-43.96h26.94v115.02Z"/>
      <path d="M434.4,224.12c11.97,0,23.32-5.99,23.32-19.22v-1.89h-24.89v-21.74h53.41v64.76h-22.37l-3.15-16.39c-.63,5.04-1.73,7.41-3.62,9.3-4.88,5.99-17.02,9.3-28.52,9.3-33.25,0-52.47-18.43-52.47-59.09,0-34.82,16.7-60.35,56.88-60.35,35.14,0,50.42,16.23,53.1,40.49h-28.36c-2.21-9.93-10.24-15.44-24.89-15.44-17.02,0-27.26,9.77-27.26,34.03,0,26.79,10.08,36.24,28.83,36.24Z"/>
      <path d="M28.52,377.02H0v-115.02h28.52v115.02Z"/>
      <path d="M137.87,297.92h-28.2c-1.1-8.82-8.19-14.02-19.22-14.02-8.98,0-15.6,4.1-15.6,10.08,0,7.25,5.99,9.61,22.53,12.6,27.89,4.73,43.33,15.44,43.33,36.87,0,26.47-24.11,35.77-48.37,35.77-28.68,0-48.37-12.29-49.63-39.08h28.2c1.26,9.61,9.45,14.97,21.74,14.97,10.71,0,19.07-3.62,19.07-10.24,0-7.09-5.67-10.87-24.11-14.02-25.68-4.25-42.23-14.34-41.75-36.08.32-23,20.96-34.98,45.69-34.98,28.52,0,45.22,13.08,46.32,38.13Z"/>
      <path d="M368.77,286.58h-55.78v21.27h52.47v22.69h-52.47v21.9h56.88v24.58h-85.4v-115.02h84.3v24.58Z"/>
      <path d="M481.12,297.92h-28.2c-1.1-8.82-8.19-14.02-19.22-14.02-8.98,0-15.6,4.1-15.6,10.08,0,7.25,5.99,9.61,22.53,12.6,27.89,4.73,43.33,15.44,43.33,36.87,0,26.47-24.11,35.77-48.37,35.77-28.68,0-48.37-12.29-49.63-39.08h28.2c1.26,9.61,9.45,14.97,21.74,14.97,10.71,0,19.07-3.62,19.07-10.24,0-7.09-5.67-10.87-24.11-14.02-25.68-4.25-42.23-14.34-41.75-36.08.32-23,20.96-34.98,45.69-34.98,28.52,0,45.22,13.08,46.32,38.13Z"/>
      <path d="M28.52,508.02H0v-115.02h28.52v115.02Z"/>
      <path d="M101.39,486.12c11.97,0,23.32-5.99,23.32-19.22v-1.89h-24.89v-21.74h53.41v64.76h-22.37l-3.15-16.39c-.63,5.04-1.73,7.41-3.62,9.3-4.88,5.99-17.02,9.3-28.52,9.3-33.25,0-52.47-18.43-52.47-59.09,0-34.82,16.7-60.35,56.88-60.35,35.14,0,50.42,16.23,53.1,40.49h-28.36c-2.21-9.93-10.24-15.44-24.89-15.44-17.02,0-27.26,9.77-27.26,34.03,0,26.79,10.08,36.24,28.83,36.24Z"/>
      <path d="M261.31,508.02h-33.4l-26.79-50.89c-4.73-9.61-9.3-19.54-13.71-29.31.79,12.45,1.1,23.48,1.1,33.72v46.48h-26.94v-115.02h33.25l25.84,48.06c5.2,10.08,10.08,20.33,14.81,30.57-.79-12.45-1.1-24.58-1.1-34.66v-43.96h26.94v115.02Z"/>
      <path d="M368.77,417.58h-55.78v21.27h52.47v22.69h-52.47v21.9h56.88v24.58h-85.4v-115.02h84.3v24.58Z"/>
      <path d="M443.3,393.63c23.63,2.36,48.21,12.92,48.21,55.3s-24.58,55.78-47.58,58.46c-5.67.63-8.35.63-14.02.63h-43.96v-115.02h43.96c5.67,0,8.19,0,13.39.63ZM432.9,483.44c19.38,0,29.31-9.45,29.31-34.19,0-22.69-9.3-31.67-29.31-31.67h-18.43v65.86h18.43Z"/>
      <path class="cls-1" d="M206.34,376.41c-29.67-2.02-53.11-26.72-53.11-56.9s25.54-57.04,57.03-57.04c12.04,0,23.21,3.73,32.42,10.1,4.93,3.41,11.66-.17,11.66-6.16v-.11s.02-.04.04-.04h12.88s.04.02.04.04v52.7c0,33.59-27.45,59.7-60.96,57.42Z"/>
    </g>
  </g>
</svg>